<!-- Generated by Microsoft Visio, SVG Export Introduction_diagram_vs7.svg Page-1 --><svg xmlns:xlink="http://www.w3.org/1999/xlink" xmlns:ev="http://www.w3.org/2001/xml-events" xmlns:v="http://schemas.microsoft.com/visio/2003/SVGExtensions/" xmlns="http://www.w3.org/2000/svg" width="6.20483in" height="3.51783in" viewBox="0 0 446.748 253.283" xml:space="preserve" color-interpolation-filters="sRGB" class="st6" preserveAspectRatio="xMidYMid meet" zoomAndPan="magnify" version="1.1" contentScriptType="application/ecmascript" contentStyleType="text/css">
	

	<style type="text/css" xml:space="preserve">
	
		.st1 {fill:#ffffff;stroke:#000000;stroke-dasharray:4,2;stroke-linecap:butt;stroke-width:0.5}
		.st2 {fill:#000000;font-family:Arial;font-size:0.666664em}
		.st3 {fill:#ffffff;stroke:#000000;stroke-linecap:butt;stroke-width:0.5}
		.st4 {font-size:1em}
		.st5 {fill:none;stroke:none;stroke-linecap:butt;stroke-width:0.5}
		.st6 {fill:none;fill-rule:evenodd;font-size:12px;overflow:visible;stroke-linecap:square;stroke-miterlimit:3}
	
	</style>

	<g>
		<title>Page-1</title>
		
		
		
		
		
		
		
		
		
		<g id="shape57-1" transform="translate(0.5,-0.5)">
			<title>Block.57</title>
			<desc>DynamIQ cluster</desc>
			
			
			<path d="M0 253.28 L445.75 253.28 L445.75 1 L0 1 L0 253.28 Z" class="st1"/>
			<text x="79.38" y="16.87" class="st2">DynamIQ cluster</text>		</g>
		<g id="shape19-4" transform="translate(383.886,-62.8622)">
			<title>Block.19</title>
			<desc>DebugBlock</desc>
			
			
			
			
			<rect x="0" y="182.417" width="51.0236" height="70.8661" class="st3"/>
			<text x="3.94" y="220.25" class="st2">DebugBlock</text>		</g>
		<g id="shape78-7" transform="translate(55.0669,-9.00394)">
			<title>Block.78</title>
			<desc>DynamIQ cluster</desc>
			
			
			<rect x="0" y="18.0079" width="317.48" height="235.276" class="st3"/>
			<text x="5.17" y="26.86" class="st2">DynamIQ cluster</text>		</g>
		<g id="shape59-10" transform="translate(63.5709,-17.5079)">
			<title>Block.16</title>
			<desc>DynamIQ cluster shared logic</desc>
			
			
			<rect x="0" y="137.063" width="297.638" height="116.22" class="st3"/>
			<text x="4.23" y="145.27" class="st2">DynamIQ cluster shared logic</text>		</g>
		<g id="shape50-13" transform="translate(69.2402,-68.5315)">
			<title>Block.50</title>
			<desc>Power Policy Units (PPUs)</desc>
			
			
			<rect x="0" y="199.425" width="56.6929" height="53.8583" class="st3"/>
			<text x="5.23" y="223.95" class="st2">Power Policy <tspan x="5.23" dy="1.2em" class="st4">Units (PPUs)</tspan></text>		</g>
		<g id="shape48-17" transform="translate(131.602,-68.5315)">
			<title>Block.13</title>
			<desc>Snoop Control Unit (SCU) and L3 cache</desc>
			
			
			<rect x="0" y="199.425" width="153.369" height="53.8583" class="st3"/>
			<text x="4.83" y="209.62" class="st2">Snoop Control Unit (SCU) and L3 cache</text>		</g>
		<g id="shape49-20" transform="translate(131.602,-43.0197)">
			<title>Block.14</title>
			<desc>Memory interface</desc>
			
			
			<rect x="0" y="233.441" width="153.369" height="19.8425" class="st3"/>
			<text x="45.79" y="245.76" class="st2">Memory interface</text>		</g>
		<g id="shape67-23" transform="translate(140.106,-77.0354)">
			<title>Block.17</title>
			<desc>L3 cache</desc>
			
			
			<rect x="0" y="224.937" width="68.0315" height="28.3465" class="st3"/>
			<text x="17.78" y="241.51" class="st2">L3 cache</text>		</g>
		<g id="shape68-26" transform="translate(216.642,-77.0354)">
			<title>Block.68</title>
			<desc>Snoop filters</desc>
			
			
			<rect x="0" y="224.937" width="61.1687" height="28.3465" class="st3"/>
			<text x="8.35" y="241.51" class="st2">Snoop filters</text>		</g>
		<g id="shape69-29" transform="translate(291.088,-91.2087)">
			<title>Block.69</title>
			<desc>Accelerator Coherency Port (ACP)</desc>
			
			
			<rect x="0" y="222.102" width="61.1687" height="31.1811" class="st3"/>
			<text x="10.35" y="230.49" class="st2">Accelerator <tspan x="2.79" dy="1.2em" class="st4">Coherency Port </tspan><tspan x="19.7" dy="1.2em" class="st4">(ACP)</tspan></text>		</g>
		<g id="shape70-34" transform="translate(291.088,-43.0197)">
			<title>Block.70</title>
			<desc>Peripheral Port</desc>
			
			
			<rect x="0" y="236.276" width="61.1687" height="17.0079" class="st3"/>
			<text x="3.9" y="247.18" class="st2">Peripheral Port</text>		</g>
		<g id="shape72-37" transform="translate(291.088,-62.8622)">
			<title>Block.18</title>
			<desc>DebugBlock interface</desc>
			
			
			<rect x="0" y="227.772" width="61.1687" height="25.5118" class="st3"/>
			<text x="9.02" y="238.13" class="st2">DebugBlock<tspan x="15.24" dy="1.2em" class="st4">interface</tspan></text>		</g>
		<g id="shape74-41" transform="translate(131.602,-24.5945)">
			<title>Block.74</title>
			<desc>DSU bridges</desc>
			
			
			<rect x="0" y="239.11" width="221.102" height="14.1732" class="st3"/>
			<text x="87.88" y="248.6" class="st2">DSU bridges</text>		</g>
		<g id="shape106-44" transform="translate(69.2402,-24.5945)">
			<title>Block.21</title>
			<desc>Utility bus</desc>
			
			
			<rect x="0" y="239.11" width="56.6929" height="14.1732" class="st3"/>
			<text x="11.01" y="248.6" class="st2">Utility bus</text>		</g>
		<g id="group152-47" transform="translate(86.248,-187.587)">
			<title>Sheet.152</title>
			<g id="shape134-48" transform="translate(-7.99361E-15,-12.4724)">
				<title>Block.134</title>
				<desc>Core 0</desc>
				
				
				
				
				<rect x="0" y="223.236" width="51.0236" height="30.0472" class="st3"/>
				<text x="13.51" y="240.66" class="st2">Core 0  </text>			</g>
			<g id="shape135-51">
				<title>Block.135</title>
				<desc>CPU bridge</desc>
				
				
				<rect x="0" y="240.528" width="51.0236" height="12.7559" class="st3"/>
				<text x="4.84" y="249.31" class="st2">CPU bridge</text>			</g>
		</g>
		<g id="group153-54" transform="translate(154.28,-187.587)">
			<title>Sheet.153</title>
			<g id="shape144-55" transform="translate(-7.99361E-15,-12.4724)">
				<title>Block.134</title>
				<desc>Core 1</desc>
				
				
				
				
				<rect x="0" y="223.236" width="51.0236" height="30.0472" class="st3"/>
				<text x="13.51" y="240.66" class="st2">Core 1  </text>			</g>
			<g id="shape145-58">
				<title>Block.135</title>
				<desc>CPU bridge</desc>
				
				
				<rect x="0" y="240.528" width="51.0236" height="12.7559" class="st3"/>
				<text x="4.84" y="249.31" class="st2">CPU bridge</text>			</g>
		</g>
		<g id="group154-61" transform="translate(86.248,-140.815)">
			<title>Sheet.154</title>
			<g id="shape147-62" transform="translate(7.99361E-15,-12.4724)">
				<title>Block.147</title>
				<desc>Core 2</desc>
				
				
				
				
				<rect x="0" y="223.236" width="51.0236" height="30.0472" class="st3"/>
				<text x="13.51" y="240.66" class="st2">Core 2</text>			</g>
			<g id="shape148-65">
				<title>Block.148</title>
				<desc>CPU bridge</desc>
				
				
				<rect x="0" y="240.528" width="51.0236" height="12.7559" class="st3"/>
				<text x="4.84" y="249.31" class="st2">CPU bridge</text>			</g>
		</g>
		<g id="group155-68" transform="translate(154.28,-140.815)">
			<title>Sheet.155</title>
			<g id="shape150-69" transform="translate(-7.99361E-15,-12.4724)">
				<title>Block.150</title>
				<desc>Core 3</desc>
				
				
				
				
				<rect x="0" y="223.236" width="51.0236" height="30.0472" class="st3"/>
				<text x="13.51" y="240.66" class="st2">Core 3  </text>			</g>
			<g id="shape151-72">
				<title>Block.151</title>
				<desc>CPU bridge</desc>
				
				
				<rect x="0" y="240.528" width="51.0236" height="12.7559" class="st3"/>
				<text x="4.84" y="249.31" class="st2">CPU bridge</text>			</g>
		</g>
		<g id="shape46-75" transform="translate(219.476,-146.484)">
			<title>Block.46</title>
			<desc>Complex 0</desc>
			
			
			<rect x="0" y="171.079" width="136.063" height="82.2047" class="st3"/>
			<text x="48.91" y="179.53" class="st2">Complex 0</text>		</g>
		<g id="shape45-78" transform="translate(254.977,-165.394)">
			<title>Block.45</title>
			<desc>Shared logic</desc>
			
			
			<rect x="0" y="240.079" width="60.027" height="13.2043" class="st3"/>
			<text x="7.66" y="249.08" class="st2">Shared logic</text>		</g>
		<g id="shape127-81" transform="translate(219.476,-146.484)">
			<title>Block.23</title>
			<desc>CPU bridge</desc>
			
			
			<rect x="0" y="239.11" width="136.063" height="14.1732" class="st3"/>
			<text x="47.36" y="248.6" class="st2">CPU bridge</text>		</g>
		<g id="shape157-84" transform="translate(230.815,-184.469)">
			<title>Block.134</title>
			<desc>Core 4</desc>
			
			
			
			
			<rect x="0" y="223.236" width="51.0236" height="30.0472" class="st3"/>
			<text x="13.51" y="240.66" class="st2">Core 4  </text>		</g>
		<g id="shape159-87" transform="translate(290.343,-184.469)">
			<title>Block.159</title>
			<desc>Core 5</desc>
			
			
			
			
			<rect x="0" y="223.236" width="51.0236" height="30.0472" class="st3"/>
			<text x="13.51" y="240.66" class="st2">Core 5  </text>		</g>
		<g id="shape161-90" transform="translate(6.16929,-221.602)">
			<title>Sheet.161</title>
			<desc>DynamIQ Shared Unit</desc>
			
			
			<rect x="0" y="227.772" width="45.3543" height="25.5118" class="st5"/>
			<text x="-1.83" y="233.14" class="st2">DynamIQ <tspan x="-1.83" dy="1.2em" class="st4">Shared Unit</tspan></text>		</g>
	</g>
</svg>